<svg width="255" height="31" fill="none" xmlns="http://www.w3.org/2000/svg"><path fill-rule="evenodd" clip-rule="evenodd" d="M22.529 28.122L17.36 22.57l-2.493 2.878L20.036 31l2.493-2.878zm-3.572-19.83L11.237 0 3.558 8.293h5.667v9.771L0 28.13l2.745 2.862L13.15 19.736V8.293h5.806zm74.992 7.73v1.794c0 3.717-2.278 6.087-5.845 6.087-3.872 0-6.28-2.875-6.28-7.515 0-4.58 2.436-7.505 6.243-7.505 3.085 0 5.345 1.884 5.771 4.808h-2.38c-.482-1.626-1.677-2.528-3.39-2.528-2.335 0-3.799 1.993-3.799 5.205 0 3.252 1.492 5.255 3.872 5.255 2.038 0 3.428-1.329 3.465-3.302l.01-.297H88.4V16.02h5.548zM54.58 9.24v14.306h-2.223V13.483h-.13l-3.696 9.567h-1.704l-3.697-9.567H43v10.063h-2.222V9.24h2.797l4.02 10.49h.167l4.02-10.49h2.798zm5.688 12.095h6.262v2.211h-8.652V9.24h8.652v2.21h-6.262v3.798h5.919v2.082h-5.92v4.005zm11.616-9.973h2.705c1.52 0 2.445.912 2.445 2.399 0 1.517-.87 2.39-2.39 2.39h-2.76v-4.79zm0 6.82h2.65l2.62 5.364h2.734l-2.918-5.76c1.593-.615 2.52-2.191 2.52-4.075 0-2.746-1.76-4.471-4.568-4.471h-5.428v14.306h2.39v-5.363zm33.496 3.153h-6.262V17.33h5.92v-2.082h-5.92V11.45h6.262V9.24h-8.651v14.306h8.651v-2.21zm8.023 2.211V9.24h5.011c3.974 0 6.29 2.597 6.29 7.088 0 4.59-2.288 7.218-6.29 7.218h-5.011zm4.696-12.095h-2.306v9.884h2.306c2.659 0 4.169-1.774 4.169-4.967 0-3.123-1.547-4.917-4.169-4.917zm17.999 9.884h-6.262V17.33h5.919v-2.082h-5.919V11.45h6.262V9.24h-8.652v14.306h8.652v-2.21zM150.113 9.24l-4.622 14.306h-2.751L138.071 9.24h2.64l3.363 11.322h.157l3.335-11.322h2.547zm10.959 12.095h-6.262V17.33h5.919v-2.082h-5.919V11.45h6.262V9.24h-8.652v14.306h8.652v-2.21zm5.354-.03h6.133v2.241h-8.523V9.24h2.39v12.065zm14.025-12.422c-3.881 0-6.327 2.885-6.327 7.505s2.409 7.515 6.327 7.515c3.9 0 6.318-2.905 6.318-7.515 0-4.62-2.427-7.505-6.318-7.505zm0 2.27c2.372 0 3.881 2.033 3.881 5.235 0 3.192-1.5 5.245-3.881 5.245-2.408 0-3.881-2.053-3.881-5.245 0-3.202 1.51-5.235 3.881-5.235zm9.06 12.393V9.24h5.391c2.668 0 4.493 1.953 4.493 4.838 0 2.835-1.89 4.779-4.595 4.779h-2.899v4.689h-2.39zm4.761-12.165h-2.371v5.354h2.362c1.704 0 2.705-.952 2.705-2.657 0-1.755-.973-2.697-2.696-2.697zm21.565 12.165V9.24h-2.797l-4.021 10.49h-.166l-4.021-10.49h-2.797v14.306h2.223V13.483h.13l3.696 9.567h1.704l3.696-9.567h.13v10.063h2.223zm5.688-2.21h6.262v2.21h-8.652V9.24h8.652v2.21h-6.262v3.798h5.919v2.082h-5.919v4.005zm11.533 2.21V13.81h.157l6.559 9.736h2.066V9.24h-2.298v9.726h-.157l-6.559-9.726h-2.075v14.306h2.307zm17.804-12.095v12.095h-2.39V11.451h-4.113V9.24h10.625v2.21h-4.122z" fill="#000"/></svg>